<mxfile>
    <diagram id="kC0aYJs6gGP8POVYaGc8" name="Page-1">
        <mxGraphModel dx="946" dy="562" grid="1" gridSize="10" guides="1" tooltips="1" connect="1" arrows="1" fold="1" page="1" pageScale="1" pageWidth="827" pageHeight="1169" math="0" shadow="0">
            <root>
                <mxCell id="0"/>
                <mxCell id="1" parent="0"/>
                <mxCell id="2" value="Game" style="swimlane;fontStyle=1;align=center;verticalAlign=middle;childLayout=stackLayout;horizontal=1;startSize=29;horizontalStack=0;resizeParent=1;resizeParentMax=0;resizeLast=0;collapsible=0;marginBottom=0;html=1;" parent="1" vertex="1">
                    <mxGeometry x="285" y="40" width="200" height="210" as="geometry"/>
                </mxCell>
                <mxCell id="4" value="- canvas: HTMLCanvasElement&lt;br&gt;- ctx: CanvasRedeneringContext2D&lt;br&gt;- player: Player&lt;br&gt;- gameItems: GameItem[]&lt;br&gt;- score: number" style="text;html=1;strokeColor=none;fillColor=none;align=left;verticalAlign=top;spacingLeft=4;spacingRight=4;overflow=hidden;rotatable=0;points=[[0,0.5],[1,0.5]];portConstraint=eastwest;" parent="2" vertex="1">
                    <mxGeometry y="29" width="200" height="101" as="geometry"/>
                </mxCell>
                <mxCell id="5" value="" style="line;strokeWidth=1;fillColor=none;align=left;verticalAlign=middle;spacingTop=-1;spacingLeft=3;spacingRight=3;rotatable=0;labelPosition=right;points=[];portConstraint=eastwest;" parent="2" vertex="1">
                    <mxGeometry y="130" width="200" height="8" as="geometry"/>
                </mxCell>
                <mxCell id="6" value="&lt;font face=&quot;helvetica&quot;&gt;+ constructor()&lt;br&gt;- loop():void&lt;br&gt;- draw(): void&lt;br&gt;....&lt;br&gt;&lt;/font&gt;" style="text;whiteSpace=wrap;html=1;" parent="2" vertex="1">
                    <mxGeometry y="138" width="200" height="72" as="geometry"/>
                </mxCell>
                <mxCell id="8" value="GameItem" style="swimlane;fontStyle=1;align=center;verticalAlign=middle;childLayout=stackLayout;horizontal=1;startSize=29;horizontalStack=0;resizeParent=1;resizeParentMax=0;resizeLast=0;collapsible=0;marginBottom=0;html=1;" parent="1" vertex="1">
                    <mxGeometry x="270" y="280" width="230" height="230" as="geometry"/>
                </mxCell>
                <mxCell id="9" value="# img: HTMLImageElement&lt;br&gt;# xPos: number&lt;br&gt;# yPos: number&lt;br&gt;" style="text;html=1;strokeColor=none;fillColor=none;align=left;verticalAlign=top;spacingLeft=4;spacingRight=4;overflow=hidden;rotatable=0;points=[[0,0.5],[1,0.5]];portConstraint=eastwest;" parent="8" vertex="1">
                    <mxGeometry y="29" width="230" height="61" as="geometry"/>
                </mxCell>
                <mxCell id="10" value="" style="line;strokeWidth=1;fillColor=none;align=left;verticalAlign=middle;spacingTop=-1;spacingLeft=3;spacingRight=3;rotatable=0;labelPosition=right;points=[];portConstraint=eastwest;" parent="8" vertex="1">
                    <mxGeometry y="90" width="230" height="8" as="geometry"/>
                </mxCell>
                <mxCell id="11" value="&lt;font face=&quot;helvetica&quot;&gt;+ constructor()&lt;br&gt;+ draw(ctx:CanvasRenderingContext 2D)&lt;br&gt;+ getImgHeight(): number&lt;br&gt;+ getImgWidth(): number&lt;br&gt;+ getXPos(): number&lt;br&gt;+ getYPos(): number&lt;br&gt;...&lt;br&gt;&lt;/font&gt;" style="text;whiteSpace=wrap;html=1;" parent="8" vertex="1">
                    <mxGeometry y="98" width="230" height="132" as="geometry"/>
                </mxCell>
                <mxCell id="13" style="edgeStyle=orthogonalEdgeStyle;rounded=0;orthogonalLoop=1;jettySize=auto;html=1;entryX=0.5;entryY=0;entryDx=0;entryDy=0;endArrow=none;endFill=0;" parent="1" source="6" target="8" edge="1">
                    <mxGeometry relative="1" as="geometry"/>
                </mxCell>
                <mxCell id="22" style="edgeStyle=orthogonalEdgeStyle;rounded=0;orthogonalLoop=1;jettySize=auto;html=1;endArrow=block;endFill=0;" parent="1" source="14" target="11" edge="1">
                    <mxGeometry relative="1" as="geometry">
                        <Array as="points">
                            <mxPoint x="195" y="555"/>
                            <mxPoint x="310" y="555"/>
                        </Array>
                    </mxGeometry>
                </mxCell>
                <mxCell id="14" value="Player" style="swimlane;fontStyle=1;align=center;verticalAlign=middle;childLayout=stackLayout;horizontal=1;startSize=29;horizontalStack=0;resizeParent=1;resizeParentMax=0;resizeLast=0;collapsible=0;marginBottom=0;html=1;" parent="1" vertex="1">
                    <mxGeometry x="70" y="600" width="250" height="210" as="geometry"/>
                </mxCell>
                <mxCell id="15" value="- xVel: number&lt;br&gt;- yVel: number&lt;br&gt;- keyBoardListener: KeyboardListener" style="text;html=1;strokeColor=none;fillColor=none;align=left;verticalAlign=top;spacingLeft=4;spacingRight=4;overflow=hidden;rotatable=0;points=[[0,0.5],[1,0.5]];portConstraint=eastwest;" parent="14" vertex="1">
                    <mxGeometry y="29" width="250" height="61" as="geometry"/>
                </mxCell>
                <mxCell id="16" value="" style="line;strokeWidth=1;fillColor=none;align=left;verticalAlign=middle;spacingTop=-1;spacingLeft=3;spacingRight=3;rotatable=0;labelPosition=right;points=[];portConstraint=eastwest;" parent="14" vertex="1">
                    <mxGeometry y="90" width="250" height="8" as="geometry"/>
                </mxCell>
                <mxCell id="17" value="&lt;font face=&quot;helvetica&quot;&gt;+ constructor()&lt;br&gt;+ move(canvas:HTMLCanvasLement): void&lt;br&gt;+ isCleaningUp(item: GameItem): boolean&lt;br&gt;...&lt;br&gt;&lt;/font&gt;" style="text;whiteSpace=wrap;html=1;" parent="14" vertex="1">
                    <mxGeometry y="98" width="250" height="112" as="geometry"/>
                </mxCell>
                <mxCell id="24" style="edgeStyle=orthogonalEdgeStyle;rounded=0;orthogonalLoop=1;jettySize=auto;html=1;endArrow=block;endFill=0;" parent="1" source="18" target="11" edge="1">
                    <mxGeometry relative="1" as="geometry">
                        <Array as="points">
                            <mxPoint x="450" y="555"/>
                            <mxPoint x="360" y="555"/>
                        </Array>
                    </mxGeometry>
                </mxCell>
                <mxCell id="18" value="Garbage" style="swimlane;fontStyle=1;align=center;verticalAlign=middle;childLayout=stackLayout;horizontal=1;startSize=29;horizontalStack=0;resizeParent=1;resizeParentMax=0;resizeLast=0;collapsible=0;marginBottom=0;html=1;" parent="1" vertex="1">
                    <mxGeometry x="350" y="600" width="200" height="160" as="geometry"/>
                </mxCell>
                <mxCell id="19" value="- score: number" style="text;html=1;strokeColor=none;fillColor=none;align=left;verticalAlign=top;spacingLeft=4;spacingRight=4;overflow=hidden;rotatable=0;points=[[0,0.5],[1,0.5]];portConstraint=eastwest;" parent="18" vertex="1">
                    <mxGeometry y="29" width="200" height="61" as="geometry"/>
                </mxCell>
                <mxCell id="20" value="" style="line;strokeWidth=1;fillColor=none;align=left;verticalAlign=middle;spacingTop=-1;spacingLeft=3;spacingRight=3;rotatable=0;labelPosition=right;points=[];portConstraint=eastwest;" parent="18" vertex="1">
                    <mxGeometry y="90" width="200" height="8" as="geometry"/>
                </mxCell>
                <mxCell id="21" value="&lt;font face=&quot;helvetica&quot;&gt;+ constructor()&lt;br&gt;+ getScore(): number&lt;br&gt;...&lt;br&gt;&lt;/font&gt;" style="text;whiteSpace=wrap;html=1;" parent="18" vertex="1">
                    <mxGeometry y="98" width="200" height="62" as="geometry"/>
                </mxCell>
                <mxCell id="32" style="edgeStyle=orthogonalEdgeStyle;rounded=0;orthogonalLoop=1;jettySize=auto;html=1;endArrow=none;endFill=0;" parent="1" source="25" edge="1">
                    <mxGeometry relative="1" as="geometry">
                        <mxPoint x="80" y="601" as="targetPoint"/>
                    </mxGeometry>
                </mxCell>
                <mxCell id="25" value="KeyBoardListener&lt;br&gt;(gegeven in startcode)" style="html=1;" parent="1" vertex="1">
                    <mxGeometry x="70" y="450" width="130" height="50" as="geometry"/>
                </mxCell>
                <mxCell id="31" style="edgeStyle=orthogonalEdgeStyle;rounded=0;orthogonalLoop=1;jettySize=auto;html=1;endArrow=block;endFill=0;entryX=0.855;entryY=1.007;entryDx=0;entryDy=0;entryPerimeter=0;" parent="1" source="27" target="11" edge="1">
                    <mxGeometry relative="1" as="geometry">
                        <mxPoint x="470" y="520" as="targetPoint"/>
                        <Array as="points">
                            <mxPoint x="680" y="550"/>
                            <mxPoint x="467" y="550"/>
                        </Array>
                    </mxGeometry>
                </mxCell>
                <mxCell id="27" value="Egg" style="swimlane;fontStyle=1;align=center;verticalAlign=middle;childLayout=stackLayout;horizontal=1;startSize=29;horizontalStack=0;resizeParent=1;resizeParentMax=0;resizeLast=0;collapsible=0;marginBottom=0;html=1;" parent="1" vertex="1">
                    <mxGeometry x="580" y="600" width="200" height="160" as="geometry"/>
                </mxCell>
                <mxCell id="28" value="- score: number" style="text;html=1;strokeColor=none;fillColor=none;align=left;verticalAlign=top;spacingLeft=4;spacingRight=4;overflow=hidden;rotatable=0;points=[[0,0.5],[1,0.5]];portConstraint=eastwest;" parent="27" vertex="1">
                    <mxGeometry y="29" width="200" height="61" as="geometry"/>
                </mxCell>
                <mxCell id="29" value="" style="line;strokeWidth=1;fillColor=none;align=left;verticalAlign=middle;spacingTop=-1;spacingLeft=3;spacingRight=3;rotatable=0;labelPosition=right;points=[];portConstraint=eastwest;" parent="27" vertex="1">
                    <mxGeometry y="90" width="200" height="8" as="geometry"/>
                </mxCell>
                <mxCell id="30" value="&lt;font face=&quot;helvetica&quot;&gt;+ constructor()&lt;br&gt;+ getScore(): number&lt;br&gt;...&lt;br&gt;&lt;/font&gt;" style="text;whiteSpace=wrap;html=1;" parent="27" vertex="1">
                    <mxGeometry y="98" width="200" height="62" as="geometry"/>
                </mxCell>
            </root>
        </mxGraphModel>
    </diagram>
</mxfile>